<svg xmlns="http://www.w3.org/2000/svg" xml:space="preserve" viewBox="0 0 1000 177.5">
  <path fill="#ce1127" d="M26.5 92v46.2h-27V7.2h51.1c9.8 0 18.5 1.8 26 5.4 7.5 3.6 13.2 8.7 17.2 15.3 4 6.6 6 14.2 6 22.6 0 12.8-4.4 23-13.2 30.4C77.9 88.3 65.7 92 50.2 92H26.5zm0-21.8h24.1c7.1 0 12.6-1.7 16.3-5 3.7-3.4 5.6-8.2 5.6-14.4 0-6.4-1.9-11.6-5.7-15.6-3.8-4-9-6-15.7-6.1H26.5v41.1zm86.3-54.5c0-3.9 1.3-7.1 3.9-9.6 2.6-2.5 6.2-3.8 10.7-3.8 4.4 0 8 1.3 10.6 3.8 2.6 2.5 4 5.7 4 9.6 0 4-1.3 7.2-4 9.7-2.7 2.5-6.2 3.8-10.6 3.8-4.4 0-7.9-1.3-10.6-3.8-2.7-2.5-4-5.8-4-9.7zm27.6 122.5h-26.1V40.8h26.1v97.4zm38-97.4.8 11.2c7-8.7 16.3-13 28-13 10.3 0 18 3 23 9.1s7.6 15.1 7.7 27.2v62.9h-26V75.9c0-5.5-1.2-9.5-3.6-12-2.4-2.5-6.4-3.7-12-3.7-7.3 0-12.8 3.1-16.5 9.4v68.6h-26V40.8h24.6zm71.5 47.8c0-9.7 1.9-18.3 5.6-25.8 3.7-7.6 9.1-13.4 16.1-17.5 7-4.1 15.1-6.2 24.3-6.2 13.1 0 23.9 4 32.2 12.1 8.3 8 12.9 19 13.9 32.7l.2 6.7c0 14.9-4.2 26.9-12.5 35.9S310.2 140 296.1 140c-14 0-25.2-4.5-33.6-13.5-8.4-9-12.6-21.2-12.6-36.7v-1.2zm26 1.9c0 9.3 1.7 16.3 5.2 21.2 3.5 4.9 8.5 7.3 14.9 7.3 6.3 0 11.2-2.4 14.8-7.3 3.5-4.8 5.3-12.6 5.3-23.2 0-9.1-1.8-16.1-5.3-21.1s-8.5-7.5-14.9-7.5-11.3 2.5-14.8 7.4c-3.5 5.1-5.2 12.8-5.2 23.2zm113.6 10.9 18-60.5h27.9l-39.1 112.5-2.2 5.1c-5.8 12.7-15.4 19.1-28.8 19.1-3.8 0-7.6-.6-11.5-1.7v-19.7l4 .1c4.9 0 8.6-.8 11-2.2s4.3-4 5.7-7.5l3.1-8L343.5 41h28l18 60.4z"/>
  <path fill="#0038a7" d="m542 100.4 17.6-93.2h26.9l-29.1 131h-27.2L509 50.6l-21.3 87.6h-27.2l-29.1-131h26.9l17.7 93 21.6-93h22.9l21.5 93.2zm88.4 39.6c-14.3 0-25.9-4.4-34.9-13.1-9-8.8-13.4-20.4-13.4-35v-2.5c0-9.8 1.9-18.5 5.7-26.2 3.8-7.7 9.1-13.6 16.1-17.8 6.9-4.2 14.8-6.3 23.7-6.3 13.3 0 23.8 4.2 31.4 12.6 7.6 8.4 11.5 20.3 11.5 35.7V98h-62c.8 6.4 3.4 11.5 7.6 15.3 4.2 3.8 9.6 5.8 16.1 5.8 10 0 17.8-3.6 23.5-10.9l12.8 14.3c-3.9 5.5-9.2 9.8-15.8 12.9-6.8 3-14.2 4.6-22.3 4.6zm-3-80c-5.2 0-9.3 1.7-12.6 5.2-3.2 3.5-5.3 8.5-6.2 15h36.2v-2.1c-.1-5.8-1.7-10.3-4.7-13.4-2.9-3.1-7.2-4.7-12.7-4.7zM730 140c-14.3 0-25.9-4.4-34.9-13.1-9-8.8-13.4-20.4-13.4-35v-2.5c0-9.8 1.9-18.5 5.7-26.2 3.8-7.7 9.1-13.6 16.1-17.8 6.9-4.2 14.8-6.3 23.7-6.3 13.3 0 23.8 4.2 31.4 12.6C766.2 60 770 71.9 770 87.4V98h-62c.8 6.4 3.4 11.5 7.6 15.3 4.2 3.8 9.6 5.8 16.1 5.8 10 0 17.8-3.6 23.5-10.9l12.8 14.3c-3.9 5.5-9.2 9.8-15.8 12.9-6.8 3-14.1 4.6-22.2 4.6zm-3-80c-5.2 0-9.3 1.7-12.6 5.2-3.2 3.5-5.3 8.5-6.2 15h36.2v-2.1c-.1-5.8-1.7-10.3-4.7-13.4-2.9-3.1-7.2-4.7-12.7-4.7zm89.4 39.1-9.4 9.4v29.7h-26V0h26v76.6l5-6.5 25-29.3h31.2L833 81.4l38.2 56.8h-29.9l-24.9-39.1zm86.8 39.1h-26.1V0h26.1v138.2zm50.4-36.8 18-60.5h27.9l-39.1 112.5-2.2 5.1c-5.8 12.7-15.4 19.1-28.8 19.1-3.8 0-7.6-.6-11.5-1.7v-19.7l4 .1c4.9 0 8.6-.8 11-2.2s4.3-4 5.7-7.5l3.1-8L907.6 41h28l18 60.4z"/>
</svg>
